<?xml version="1.0" encoding="UTF-8" standalone="no"?>
<svg width="40px" height="28px" viewBox="0 0 40 28" version="1.1" xmlns="http://www.w3.org/2000/svg" xmlns:xlink="http://www.w3.org/1999/xlink">
    <!-- Generator: Sketch 3.6.1 (26313) - http://www.bohemiancoding.com/sketch -->
    <title>Group</title>
    <desc>Created with Sketch.</desc>
    <defs/>
    <g id="Page-1" stroke="none" stroke-width="1" fill="none" fill-rule="evenodd">
        <g id="Group">
            <path d="M36.836,0 L3.166,0 C1.416,0 0,1.42 0,3.166 L0,24.526 C0,26.278 1.416,27.704 3.166,27.704 L36.836,27.704 C38.584,27.704 40,26.278 40,24.526 L40,3.166 C40,1.422 38.584,0 36.836,0 L36.836,0 Z" id="Path" fill-opacity="0.02" fill="#FFFFFF"/>
            <path d="M21.7081715,14.5 L27.7486093,7.65417045 C28.0764427,7.28262593 28.0826563,6.66254485 27.7490289,6.28443386 C27.4130756,5.90368675 26.8742969,5.90653579 26.5404378,6.28490943 L20.5,13.130739 L14.4595622,6.28490943 C14.1317288,5.9133649 13.5845984,5.90632287 13.2509711,6.28443386 C12.9150177,6.66518097 12.9175316,7.27579681 13.2513907,7.65417045 L19.2918285,14.5 L13.2513907,21.3458295 C12.9235573,21.7173741 12.9173437,22.3374551 13.2509711,22.7155661 C13.5869244,23.0963132 14.1257031,23.0934642 14.4595622,22.7150906 L20.5,15.869261 L26.5404378,22.7150906 C26.8682712,23.0866351 27.4154016,23.0936771 27.7490289,22.7155661 C28.0849823,22.334819 28.0824684,21.7242032 27.7486093,21.3458295 L21.7081715,14.5 L21.7081715,14.5 Z" id="Cancel" fill="#030303"/>
        </g>
    </g>
</svg>