<?xml version="1.0" encoding="utf-8"?>
<!-- Generator: Adobe Illustrator 16.0.0, SVG Export Plug-In . SVG Version: 6.00 Build 0)  -->
<!DOCTYPE svg PUBLIC "-//W3C//DTD SVG 1.1//EN" "http://www.w3.org/Graphics/SVG/1.1/DTD/svg11.dtd">
<svg version="1.1" id="Layer_1" xmlns="http://www.w3.org/2000/svg" xmlns:xlink="http://www.w3.org/1999/xlink" x="0px" y="0px"
	 width="40.042px" height="30px" viewBox="105.833 5 40.042 30" enable-background="new 105.833 5 40.042 30" xml:space="preserve">
<path d="M134.272,12.546h-16.835c-0.875,0-1.583,0.71-1.583,1.583v10.68c0,0.876,0.708,1.589,1.583,1.589h16.835
	c0.874,0,1.582-0.713,1.582-1.589v-10.68C135.854,13.257,135.146,12.546,134.272,12.546z M125.73,21.734
	c-0.029,0.023-0.05,0.042-0.066,0.055c-0.009-0.011-0.026-0.026-0.045-0.046l-7.436-7.848h15.184L125.73,21.734z M122.169,20.067
	l-4.966,4.268V14.82L122.169,20.067z M123.1,21.05l1.557,1.64c0.302,0.303,0.654,0.458,1.007,0.458c0.354,0,0.715-0.157,1.026-0.468
	l1.814-1.861l4.808,4.224h-14.864L123.1,21.05z M134.505,24.299l-5.059-4.448l5.059-5.194V24.299z"/>
</svg>
