<?xml version="1.0" encoding="utf-8"?>
<!-- Generator: Adobe Illustrator 16.0.0, SVG Export Plug-In . SVG Version: 6.00 Build 0)  -->
<!DOCTYPE svg PUBLIC "-//W3C//DTD SVG 1.1//EN" "http://www.w3.org/Graphics/SVG/1.1/DTD/svg11.dtd">
<svg version="1.1" id="Layer_1" xmlns="http://www.w3.org/2000/svg" xmlns:xlink="http://www.w3.org/1999/xlink" x="0px" y="0px"
	 width="40px" height="30px" viewBox="96 5 40 30" enable-background="new 96 5 40 30" xml:space="preserve">
<g>
	<g>
		<g>
			<g>
				<path d="M122.27,28.285l-3.994-3.995c-1.094,0.719-2.402,1.138-3.814,1.138c-3.848,0-6.961-3.119-6.961-6.968
					c0-3.841,3.113-6.96,6.961-6.96c3.841,0,6.96,3.119,6.96,6.96c0,1.343-0.378,2.597-1.032,3.655l4.021,4.022
					c0.213,0.206,0.035,0.723-0.393,1.149l-0.6,0.6C122.991,28.313,122.476,28.491,122.27,28.285z M119.108,18.46
					c0-2.567-2.079-4.647-4.647-4.647c-2.568,0-4.655,2.08-4.655,4.647c0,2.568,2.086,4.655,4.655,4.655
					C117.029,23.115,119.108,21.028,119.108,18.46z"/>
			</g>
		</g>
	</g>
</g>
</svg>
